<svg width="338" height="75" viewBox="0 0 338 75" fill="none" xmlns="http://www.w3.org/2000/svg">
<path d="M130.182 60H116.436V56.288H121.192V26.012H116.436V22.3H130.182V26.012H125.484V56.288H130.182V60ZM173.465 26.012H168.767V60H166.041L144.175 30.304H143.943V56.288H149.917V60H135.533V56.288H139.883V26.012H134.895V22.3H143.015L164.475 51.358H164.707V26.012H159.023V22.3H173.465V26.012ZM206.02 60H177.948V56.288H182.704V26.012H177.948V22.3H205.498L206.658 32.972L202.946 33.378L201.786 26.012H186.938V39.004H204.744V42.716H186.938V56.288H202.308L203.468 48.922L207.122 49.328L206.02 60ZM244.815 60H237.275L229.155 44.224H221.093V56.288H226.139V60H212.045V56.288H216.801V26.012H212.045V22.3H228.343C233.022 22.3 236.367 23.3247 238.377 25.374C240.388 27.3847 241.393 29.9173 241.393 32.972C241.393 35.408 240.717 37.5927 239.363 39.526C238.01 41.4207 235.999 42.716 233.331 43.412L240.059 56.288H244.815V60ZM236.927 33.146C236.927 30.6713 236.212 28.8733 234.781 27.752C233.351 26.592 231.031 26.012 227.821 26.012H221.093V40.686H227.937C231.147 40.686 233.447 40.0287 234.839 38.714C236.231 37.3607 236.927 35.5047 236.927 33.146ZM279.752 33.784L275.982 34.074L274.822 26.012H265.078V56.288H271.748V60H254.348V56.288H260.844V26.012H251.1L249.94 34.074L246.228 33.784L247.33 22.3H278.592L279.752 33.784ZM297.159 60H283.413V56.288H288.169V26.012H283.413V22.3H297.159V26.012H292.461V56.288H297.159V60ZM337.658 60H324.26V56.288H329.306L326.58 49.038H310.456L307.556 56.288H313.008V60H299.726V56.288H303.264L315.618 26.012H309.586V22.3H320.316L333.83 56.288H337.658V60ZM325.362 45.732L318.866 28.448H318.518L311.732 45.732H325.362Z" fill="white"/>
<rect width="25" height="25" fill="#2C2BE6"/>
<rect y="50" width="25" height="25" rx="12.5" fill="#CDE2EA"/>
<rect x="50" width="25" height="25" rx="12.5" fill="#CDE2EA"/>
<rect x="50" y="50" width="25" height="25" fill="#2C2BE6"/>
</svg>
